<?xml version="1.0" encoding="utf-8"?>
<!-- Generator: Adobe Illustrator 24.0.1, SVG Export Plug-In . SVG Version: 6.00 Build 0)  -->
<svg version="1.1" id="Layer_1" xmlns="http://www.w3.org/2000/svg" xmlns:xlink="http://www.w3.org/1999/xlink" x="0px" y="0px"
	 viewBox="0 0 250 250" style="enable-background:new 0 0 250 250;" xml:space="preserve">
<style type="text/css">
	.st0{fill-rule:evenodd;clip-rule:evenodd;}
</style>
<g id="Icon">
	<path class="st0" d="M112.3,171.8c-5.3-11.7-1.1-26.4,0.4-40.8c0.1-1.1-0.3-2.2-1.1-3c-4.3-3.8-10.8-4.1-12.9-10.4
		c-0.1-0.4-0.2-0.9-0.2-1.3v-1.8c0-0.9,0.5-1.8,1.3-2.2c7.3-4,11.2-13.1,20.3-15.3c1.3-5.5-1-10.7,1-14.9c0.7,0,9.5,3.9,12.6,14.1
		c9.1,4.2,14.7,10.3,16.7,20.8c0.6,3-0.4,6.6,0.6,10.4c1.3,5.2,8.7,11.8,14.4,15c4,2.2,9.2,2.8,13.3,5.2c1.2,0.7,2.4,1.6,3.6,2.6
		c3.4-7.7,5.2-16.2,5.2-25.1c0-34.5-28-62.5-62.5-62.5s-62.5,28-62.5,62.5c0,33.5,26.4,60.9,59.5,62.5
		C119.4,181.5,114.7,177.2,112.3,171.8z"/>
</g>
</svg>
